<svg width="267" height="73" viewBox="0 0 267 73" fill="none" xmlns="http://www.w3.org/2000/svg">
<path d="M61.9629 57.908C63.3069 57.908 63.9789 58.628 63.9789 59.972V63.092C63.9789 64.388 63.3069 65.012 61.9629 65.012H32.0589C30.6189 65.012 29.8989 64.34 29.8989 62.9V59.972C29.8989 58.628 30.5709 57.908 31.9629 57.908H39.7869V38.516C39.7869 37.124 40.5069 36.404 42.0429 36.404H45.2589C46.6989 36.404 47.4669 37.124 47.4669 38.516V57.908H61.9629ZM62.2029 19.124C63.3549 19.124 63.9789 19.796 63.9789 21.14C63.9789 32.852 63.0669 43.316 61.2909 52.628C61.0509 53.876 60.2349 54.452 58.8429 54.452H55.6269C54.7629 54.452 54.1869 54.26 53.9949 53.78C53.7549 53.348 53.7069 52.772 53.8989 52.004C55.1469 44.276 55.9149 36.02 56.1069 27.188C56.2029 26.42 55.8669 25.988 55.0989 25.988H31.4829C30.4269 25.988 29.8989 25.46 29.8989 24.356V20.804C29.8989 19.7 30.4269 19.124 31.4829 19.124H62.2029ZM79.5849 26.852L79.1529 30.356C88.4169 28.388 93.0729 36.836 93.0729 55.748V63.716C93.0729 64.916 92.4009 65.492 91.1049 65.492H87.7929C86.4489 65.492 85.7769 64.916 85.7769 63.716V55.364C85.7769 41.924 83.2329 36.5 78.2409 39.092C77.4729 47.444 77.1369 55.604 77.2329 63.668C77.2329 64.916 76.5609 65.54 75.2169 65.54H71.7129C70.3689 65.54 69.6969 64.916 69.6969 63.572C69.5529 49.652 70.3209 37.412 72.0009 26.852H70.7049C69.6489 26.852 69.1209 26.276 69.1209 25.124V21.812C69.1209 20.66 69.6969 20.084 70.8969 20.084H75.5529V18.884C75.5529 17.924 76.0809 17.396 77.1369 17.396H81.7929C82.7529 17.396 83.2329 17.924 83.2329 18.884V20.084H91.3449C92.5929 20.084 93.2649 20.66 93.2649 21.812V24.884C93.2649 26.228 92.5929 26.852 91.2969 26.852H79.5849ZM96.5289 20.276C96.5289 18.884 97.2489 18.164 98.7369 18.164H102.097C103.633 18.164 104.401 18.836 104.401 20.18V63.956C104.401 65.396 103.633 66.068 102.193 66.068H98.7369C97.2489 66.068 96.5289 65.396 96.5289 63.956V20.276ZM131.993 27.14H133.961V19.796C133.961 18.692 134.537 18.116 135.785 18.116H139.193C140.441 18.116 141.113 18.692 141.113 19.796V44.42C141.113 45.572 140.441 46.148 139.145 46.148H135.881C134.585 46.148 133.961 45.572 133.961 44.324V33.764H131.993V42.404C131.993 43.172 131.561 43.7 130.697 44.036C124.985 45.668 118.793 46.532 112.169 46.628C110.825 46.628 110.153 46.148 110.153 45.14V19.844C110.153 18.692 110.873 18.116 112.361 18.116H129.641C131.177 18.116 131.993 18.692 131.993 19.844V27.14ZM142.601 19.796C142.601 18.692 143.225 18.116 144.521 18.116H147.833C149.081 18.116 149.753 18.692 149.753 19.796V44.42C149.753 45.572 149.081 46.148 147.785 46.148H144.569C143.225 46.148 142.601 45.572 142.601 44.324V19.796ZM117.497 40.292C119.945 40.292 122.249 39.908 124.457 39.14V24.788H117.497V40.292ZM130.409 48.02C143.465 48.02 150.041 51.14 150.041 57.284C150.041 63.332 143.465 66.356 130.409 66.356C117.257 66.356 110.729 63.332 110.729 57.236C110.729 51.092 117.257 48.02 130.409 48.02ZM130.457 60.5C138.521 60.5 142.601 59.444 142.601 57.236C142.601 55.028 138.521 53.924 130.409 53.924C122.249 53.924 118.169 55.028 118.169 57.236C118.169 59.444 122.249 60.5 130.457 60.5ZM157.442 41.588C156.242 41.588 155.666 41.012 155.666 39.764V36.692C155.666 35.492 156.242 34.868 157.394 34.868H189.266C190.61 34.868 191.282 35.54 191.282 36.836V39.62C191.282 40.964 190.61 41.588 189.362 41.588H157.442ZM189.698 18.164C190.706 18.164 191.234 18.836 191.234 20.18C191.234 25.172 190.466 29.012 188.978 31.7C188.45 32.804 187.586 33.332 186.386 33.332H182.594C181.874 33.332 181.442 33.188 181.25 32.852C181.058 32.516 181.154 32.036 181.442 31.364C182.354 29.396 182.93 27.668 183.122 26.228C183.218 25.46 182.882 25.028 182.114 25.028H157.298C156.242 25.028 155.714 24.5 155.714 23.396V19.844C155.714 18.74 156.242 18.164 157.298 18.164H189.698ZM157.634 50.276C156.29 50.276 155.666 49.652 155.666 48.356V45.716C155.666 44.516 156.29 43.892 157.634 43.892H189.122C190.514 43.892 191.234 44.516 191.234 45.716V55.604C191.234 56.9 190.514 57.524 189.17 57.524H163.01V59.636H189.266C190.562 59.636 191.234 60.26 191.234 61.46V64.052C191.234 65.396 190.562 66.02 189.266 66.02H157.682C156.338 66.02 155.666 65.444 155.666 64.196V54.164C155.666 52.916 156.29 52.292 157.634 52.292H183.938V50.276H157.634ZM227.828 64.244C227.828 65.492 227.204 66.068 226.004 66.068H222.836C221.444 66.068 220.772 65.492 220.772 64.34V61.412C213.38 63.812 206.228 65.012 199.364 65.012C197.732 65.012 196.916 64.292 196.916 62.756V32.9C196.916 31.652 197.54 31.028 198.788 31.028H210.308V25.46H198.98C197.588 25.46 196.916 24.836 196.916 23.54V20.996C196.916 19.748 197.492 19.076 198.74 19.076H215.876C217.22 19.076 217.892 19.748 217.892 20.996V35.252C217.892 36.98 216.932 37.796 215.108 37.796H204.164V57.716C209.588 57.716 215.108 56.468 220.772 53.972V48.404H214.772C213.332 48.404 212.612 47.828 212.612 46.676V43.892C212.612 42.5 213.188 41.78 214.388 41.78H220.772V19.844C220.772 18.692 221.396 18.116 222.692 18.116H225.86C227.156 18.116 227.828 18.692 227.828 19.748V64.244ZM236.9 64.196C236.9 65.444 236.228 66.068 234.932 66.068H231.86C230.468 66.068 229.796 65.492 229.796 64.244V19.892C229.796 18.74 230.42 18.116 231.764 18.116H235.028C236.276 18.116 236.9 18.74 236.9 19.892V64.196Z" fill="#DF3337"/>
</svg>
